<svg width="254" height="116" viewBox="0 0 254 116" fill="none" xmlns="http://www.w3.org/2000/svg">
<g filter="url(#filter0_d_21_207)">
<mask id="path-1-inside-1_21_207" fill="white">
<path d="M9.00529 3.59526L8.24577 5.12821L4 1.53291L4.75952 0L9.00529 3.59526Z"/>
</mask>
<path d="M9.00529 3.59526L8.24577 5.12821L4 1.53291L4.75952 0L9.00529 3.59526Z" fill="#C099F7"/>
<path d="M9.00529 3.59526L10.7974 4.48318L11.4923 3.08054L10.2977 2.06896L9.00529 3.59526ZM8.24577 5.12821L6.95331 6.6545L8.9034 8.30583L10.0379 6.01613L8.24577 5.12821ZM4 1.53291L2.20791 0.644979L1.51294 2.04762L2.70754 3.0592L4 1.53291ZM4.75952 0L6.05197 -1.5263L4.1019 -3.17759L2.96744 -0.887935L4.75952 0ZM7.2132 2.70734L6.45368 4.2403L10.0379 6.01613L10.7974 4.48318L7.2132 2.70734ZM9.53822 3.60192L5.29246 0.0066244L2.70754 3.0592L6.95331 6.6545L9.53822 3.60192ZM5.79209 2.42085L6.55161 0.887935L2.96744 -0.887935L2.20791 0.644979L5.79209 2.42085ZM3.46707 1.5263L7.71284 5.12156L10.2977 2.06896L6.05197 -1.5263L3.46707 1.5263Z" fill="#AF89E4" mask="url(#path-1-inside-1_21_207)"/>
<mask id="path-3-inside-2_21_207" fill="white">
<path d="M16.3462 9.00052L15.6905 10.6135L11.2041 7.53531L11.8551 5.92236L16.3462 9.00052Z"/>
</mask>
<path d="M16.3462 9.00052L15.6905 10.6135L11.2041 7.53531L11.8551 5.92236L16.3462 9.00052Z" fill="#C099F7"/>
<path d="M16.3462 9.00052L18.1989 9.75374L18.8056 8.2615L17.4769 7.35081L16.3462 9.00052ZM15.6905 10.6135L14.559 12.2626L16.6076 13.6682L17.5432 11.3667L15.6905 10.6135ZM11.2041 7.53531L9.34947 6.78674L8.74841 8.27592L10.0726 9.18446L11.2041 7.53531ZM11.8551 5.92236L12.9858 4.27266L10.9323 2.86519L10.0005 5.1738L11.8551 5.92236ZM14.4935 8.24729L13.8377 9.86024L17.5432 11.3667L18.1989 9.75374L14.4935 8.24729ZM16.822 8.96431L12.3356 5.88616L10.0726 9.18446L14.559 12.2626L16.822 8.96431ZM13.0587 8.28388L13.7098 6.67093L10.0005 5.1738L9.34947 6.78674L13.0587 8.28388ZM10.7244 7.57207L15.2155 10.6502L17.4769 7.35081L12.9858 4.27266L10.7244 7.57207Z" fill="#AF89E4" mask="url(#path-3-inside-2_21_207)"/>
<mask id="path-5-inside-3_21_207" fill="white">
<path d="M24.0678 13.3838L23.5442 15.0768L18.8267 12.6143L19.3456 10.9152L24.0678 13.3838Z"/>
</mask>
<path d="M24.0678 13.3838L23.5442 15.0768L18.8267 12.6143L19.3456 10.9152L24.0678 13.3838Z" fill="#C099F7"/>
<path d="M24.0678 13.3838L25.9785 13.9748L26.4708 12.3833L24.9944 11.6114L24.0678 13.3838ZM23.5442 15.0768L22.6187 16.8498L24.7458 17.9602L25.4549 15.6678L23.5442 15.0768ZM18.8267 12.6143L16.9139 12.0301L16.4287 13.6187L17.9012 14.3873L18.8267 12.6143ZM19.3456 10.9152L20.2722 9.14275L18.1367 8.02635L17.4328 10.331L19.3456 10.9152ZM22.1571 12.7929L21.6335 14.4858L25.4549 15.6678L25.9785 13.9748L22.1571 12.7929ZM24.4697 13.3038L19.7521 10.8413L17.9012 14.3873L22.6187 16.8498L24.4697 13.3038ZM20.7394 13.1985L21.2584 11.4993L17.4328 10.331L16.9139 12.0301L20.7394 13.1985ZM18.419 12.6876L23.1412 15.1563L24.9944 11.6114L20.2722 9.14275L18.419 12.6876Z" fill="#AF89E4" mask="url(#path-5-inside-3_21_207)"/>
<mask id="path-7-inside-4_21_207" fill="white">
<path d="M32.1782 16.4374L31.8479 18.2104L26.9087 16.6528L27.2389 14.8737L32.1782 16.4374Z"/>
</mask>
<path d="M32.1782 16.4374L31.8479 18.2104L26.9087 16.6528L27.2389 14.8737L32.1782 16.4374Z" fill="#C099F7"/>
<path d="M32.1782 16.4374L34.1444 16.8036L34.4682 15.0646L32.7818 14.5307L32.1782 16.4374ZM31.8479 18.2104L31.2464 20.1178L33.4006 20.7971L33.8141 18.5766L31.8479 18.2104ZM26.9087 16.6528L24.9423 16.2879L24.6193 18.028L26.3072 18.5602L26.9087 16.6528ZM27.2389 14.8737L27.8426 12.9669L25.6854 12.284L25.2725 14.5087L27.2389 14.8737ZM30.212 16.0712L29.8817 17.8442L33.8141 18.5766L34.1444 16.8036L30.212 16.0712ZM32.4494 16.303L27.5102 14.7454L26.3072 18.5602L31.2464 20.1178L32.4494 16.303ZM28.8751 17.0178L29.2053 15.2386L25.2725 14.5087L24.9423 16.2879L28.8751 17.0178ZM26.6353 16.7804L31.5745 18.3441L32.7818 14.5307L27.8426 12.9669L26.6353 16.7804Z" fill="#AF89E4" mask="url(#path-7-inside-4_21_207)"/>
<mask id="path-9-inside-5_21_207" fill="white">
<path d="M40.5983 17.4038L40.5653 19.2507L35.4893 19.1091L35.5176 17.2622L40.5983 17.4038Z"/>
</mask>
<path d="M40.5983 17.4038L40.5653 19.2507L35.4893 19.1091L35.5176 17.2622L40.5983 17.4038Z" fill="#C099F7"/>
<path d="M40.5983 17.4038L42.598 17.4396L42.6334 15.4598L40.6541 15.4046L40.5983 17.4038ZM40.5653 19.2507L40.5095 21.2499L42.5289 21.3063L42.565 19.2865L40.5653 19.2507ZM35.4893 19.1091L33.4895 19.0785L33.4592 21.0532L35.4335 21.1083L35.4893 19.1091ZM35.5176 17.2622L35.5733 15.263L33.5488 15.2066L33.5178 17.2316L35.5176 17.2622ZM38.5987 17.3681L38.5656 19.215L42.565 19.2865L42.598 17.4396L38.5987 17.3681ZM40.6211 17.2515L35.545 17.1099L35.4335 21.1083L40.5095 21.2499L40.6211 17.2515ZM37.489 19.1397L37.5173 17.2929L33.5178 17.2316L33.4895 19.0785L37.489 19.1397ZM35.4618 19.2614L40.5426 19.4031L40.6541 15.4046L35.5733 15.263L35.4618 19.2614Z" fill="#AF89E4" mask="url(#path-9-inside-5_21_207)"/>
<mask id="path-11-inside-6_21_207" fill="white">
<path d="M48.9022 15.1569L49.3268 16.8991L44.496 18.8506L44.0762 17.1146L48.9022 15.1569Z"/>
</mask>
<path d="M48.9022 15.1569L49.3268 16.8991L44.496 18.8506L44.0762 17.1146L48.9022 15.1569Z" fill="#C099F7"/>
<path d="M48.9022 15.1569L50.8453 14.6833L50.2969 12.4328L48.1504 13.3035L48.9022 15.1569ZM49.3268 16.8991L50.0759 18.7535L51.6794 18.1057L51.2699 16.4256L49.3268 16.8991ZM44.496 18.8506L42.5521 19.3208L43.0967 21.573L45.2452 20.705L44.496 18.8506ZM44.0762 17.1146L43.3244 15.2612L41.727 15.9092L42.1322 17.5847L44.0762 17.1146ZM46.9591 15.6304L47.3836 17.3726L51.2699 16.4256L50.8453 14.6833L46.9591 15.6304ZM48.5776 15.0447L43.7469 16.9962L45.2452 20.705L50.0759 18.7535L48.5776 15.0447ZM46.44 18.3805L46.0201 16.6444L42.1322 17.5847L42.5521 19.3208L46.44 18.3805ZM44.828 18.9679L49.654 17.0102L48.1504 13.3035L43.3244 15.2612L44.828 18.9679Z" fill="#AF89E4" mask="url(#path-11-inside-6_21_207)"/>
<mask id="path-13-inside-7_21_207" fill="white">
<path d="M52.0005 5.42367L53.3733 5.07275L54.3592 11.5738L52.9864 11.9309L52.0005 5.42367Z"/>
</mask>
<path d="M52.0005 5.42367L53.3733 5.07275L54.3592 11.5738L52.9864 11.9309L52.0005 5.42367Z" fill="#C099F7"/>
<path d="M52.0005 5.42367L51.5052 3.48597L49.752 3.93412L50.0231 5.72328L52.0005 5.42367ZM53.3733 5.07275L55.3507 4.77286L55.0193 2.5877L52.878 3.13506L53.3733 5.07275ZM54.3592 11.5738L54.8627 13.5094L56.6069 13.0557L56.3366 11.2739L54.3592 11.5738ZM52.9864 11.9309L51.009 12.2305L51.3416 14.4253L53.4899 13.8665L52.9864 11.9309ZM52.4958 7.36136L53.8686 7.01045L52.878 3.13506L51.5052 3.48597L52.4958 7.36136ZM51.3959 5.37265L52.3819 11.8737L56.3366 11.2739L55.3507 4.77286L51.3959 5.37265ZM53.8558 9.63822L52.483 9.99529L53.4899 13.8665L54.8627 13.5094L53.8558 9.63822ZM54.9639 11.6313L53.9779 5.12405L50.0231 5.72328L51.009 12.2305L54.9639 11.6313Z" fill="#AF89E4" mask="url(#path-13-inside-7_21_207)"/>
<mask id="path-15-inside-8_21_207" fill="white">
<path d="M42.6978 8.11408L42.2261 6.40265L46.9908 4.10632L47.4625 5.81779L42.6978 8.11408Z"/>
</mask>
<path d="M42.6978 8.11408L42.2261 6.40265L46.9908 4.10632L47.4625 5.81779L42.6978 8.11408Z" fill="#C099F7"/>
<path d="M42.6978 8.11408L40.7697 8.64556L41.4067 10.9565L43.5661 9.91577L42.6978 8.11408ZM42.2261 6.40265L41.3578 4.60097L39.8546 5.32544L40.298 6.93412L42.2261 6.40265ZM46.9908 4.10632L48.9189 3.57486L48.2819 1.26392L46.1225 2.30465L46.9908 4.10632ZM47.4625 5.81779L48.3308 7.61948L49.834 6.89502L49.3906 5.28633L47.4625 5.81779ZM44.6259 7.58261L44.1542 5.87118L40.298 6.93412L40.7697 8.64556L44.6259 7.58261ZM43.0944 8.20433L47.8591 5.908L46.1225 2.30465L41.3578 4.60097L43.0944 8.20433ZM45.0627 4.63779L45.5344 6.34926L49.3906 5.28633L48.9189 3.57486L45.0627 4.63779ZM46.5942 4.01611L41.8295 6.3124L43.5661 9.91577L48.3308 7.61948L46.5942 4.01611Z" fill="#AF89E4" mask="url(#path-15-inside-8_21_207)"/>
<mask id="path-17-inside-9_21_207" fill="white">
<path d="M37.6829 17.0406L36.3525 16.4619L37.9659 10.1702L39.2916 10.7489L37.6829 17.0406Z"/>
</mask>
<path d="M37.6829 17.0406L36.3525 16.4619L37.9659 10.1702L39.2916 10.7489L37.6829 17.0406Z" fill="#C099F7"/>
<path d="M37.6829 17.0406L36.8851 18.8746L39.0388 19.8114L39.6205 17.536L37.6829 17.0406ZM36.3525 16.4619L34.4152 15.9651L33.9919 17.616L35.5548 18.2959L36.3525 16.4619ZM37.9659 10.1702L38.7661 8.33721L36.6123 7.397L36.0286 9.67338L37.9659 10.1702ZM39.2916 10.7489L41.2292 11.2443L41.6506 9.5964L40.0917 8.9159L39.2916 10.7489ZM38.4807 15.2066L37.1503 14.6279L35.5548 18.2959L36.8851 18.8746L38.4807 15.2066ZM38.2899 16.9587L39.9032 10.667L36.0286 9.67338L34.4152 15.9651L38.2899 16.9587ZM37.1658 12.0031L38.4914 12.5818L40.0917 8.9159L38.7661 8.33721L37.1658 12.0031ZM37.3539 10.2534L35.7452 16.5452L39.6205 17.536L41.2292 11.2443L37.3539 10.2534Z" fill="#AF89E4" mask="url(#path-17-inside-9_21_207)"/>
<mask id="path-19-inside-10_21_207" fill="white">
<path d="M39.0125 28.1712L37.6727 28.7007L36.2056 22.3535L37.5453 21.8241L39.0125 28.1712Z"/>
</mask>
<path d="M39.0125 28.1712L37.6727 28.7007L36.2056 22.3535L37.5453 21.8241L39.0125 28.1712Z" fill="#C099F7"/>
<path d="M39.0125 28.1712L39.7475 30.0313L41.3489 29.3985L40.9611 27.7208L39.0125 28.1712ZM37.6727 28.7007L35.7241 29.1511L36.2473 31.4145L38.4077 30.5607L37.6727 28.7007ZM36.2056 22.3535L35.4705 20.4935L33.8692 21.1263L34.2569 22.804L36.2056 22.3535ZM37.5453 21.8241L39.494 21.3737L38.9708 19.1103L36.8103 19.9641L37.5453 21.8241ZM38.2775 26.3112L36.9377 26.8406L38.4077 30.5607L39.7475 30.0313L38.2775 26.3112ZM39.6213 28.2503L38.1542 21.9031L34.2569 22.804L35.7241 29.1511L39.6213 28.2503ZM36.9406 24.2136L38.2804 23.6841L36.8103 19.9641L35.4705 20.4935L36.9406 24.2136ZM35.5967 22.2745L37.0639 28.6217L40.9611 27.7208L39.494 21.3737L35.5967 22.2745Z" fill="#AF89E4" mask="url(#path-19-inside-10_21_207)"/>
<mask id="path-21-inside-11_21_207" fill="white">
<path d="M43.8583 37.3195L42.7922 38.4953L39.5229 33.4225L40.5891 32.2467L43.8583 37.3195Z"/>
</mask>
<path d="M43.8583 37.3195L42.7922 38.4953L39.5229 33.4225L40.5891 32.2467L43.8583 37.3195Z" fill="#C099F7"/>
<path d="M43.8583 37.3195L45.34 38.6629L46.3708 37.526L45.5395 36.2361L43.8583 37.3195ZM42.7922 38.4953L41.1111 39.5788L42.523 41.7697L44.2738 39.8388L42.7922 38.4953ZM39.5229 33.4225L38.0413 32.0791L37.0105 33.216L37.8418 34.506L39.5229 33.4225ZM40.5891 32.2467L42.2702 31.1633L40.8583 28.9724L39.1075 30.9033L40.5891 32.2467ZM42.3767 35.9761L41.3106 37.1519L44.2738 39.8388L45.34 38.6629L42.3767 35.9761ZM44.4733 37.4119L41.2041 32.3391L37.8418 34.506L41.1111 39.5788L44.4733 37.4119ZM41.0046 34.766L42.0707 33.5901L39.1075 30.9033L38.0413 32.0791L41.0046 34.766ZM38.908 33.3301L42.1772 38.4029L45.5395 36.2361L42.2702 31.1633L38.908 33.3301Z" fill="#AF89E4" mask="url(#path-21-inside-11_21_207)"/>
<mask id="path-23-inside-12_21_207" fill="white">
<path d="M50.709 43.8945L49.9825 45.452L45.6377 42.0107L46.3642 40.4531L50.709 43.8945Z"/>
</mask>
<path d="M50.709 43.8945L49.9825 45.452L45.6377 42.0107L46.3642 40.4531L50.709 43.8945Z" fill="#C099F7"/>
<path d="M50.709 43.8945L52.5216 44.7399L53.1895 43.3078L51.9508 42.3267L50.709 43.8945ZM49.9825 45.452L48.7407 47.0198L50.725 48.5915L51.7951 46.2975L49.9825 45.452ZM45.6377 42.0107L43.8252 41.1652L43.1572 42.5973L44.3959 43.5784L45.6377 42.0107ZM46.3642 40.4531L47.606 38.8853L45.6217 37.3137L44.5517 39.6077L46.3642 40.4531ZM48.8965 43.0491L48.17 44.6066L51.7951 46.2975L52.5216 44.7399L48.8965 43.0491ZM51.2243 43.8843L46.8795 40.4429L44.3959 43.5784L48.7407 47.0198L51.2243 43.8843ZM47.4502 42.8561L48.1767 41.2986L44.5517 39.6077L43.8252 41.1652L47.4502 42.8561ZM45.1224 42.0209L49.4673 45.4623L51.9508 42.3267L47.606 38.8853L45.1224 42.0209Z" fill="#AF89E4" mask="url(#path-23-inside-12_21_207)"/>
<mask id="path-25-inside-13_21_207" fill="white">
<path d="M58.7521 47.3727L58.4218 49.1458L53.4873 47.5944L53.8128 45.8152L58.7521 47.3727Z"/>
</mask>
<path d="M58.7521 47.3727L58.4218 49.1458L53.4873 47.5944L53.8128 45.8152L58.7521 47.3727Z" fill="#C099F7"/>
<path d="M58.7521 47.3727L60.7182 47.739L61.0425 45.9979L59.3536 45.4653L58.7521 47.3727ZM58.4218 49.1458L57.822 51.0537L59.9748 51.7305L60.388 49.512L58.4218 49.1458ZM53.4873 47.5944L51.52 47.2344L51.202 48.9724L52.8875 49.5023L53.4873 47.5944ZM53.8128 45.8152L54.4143 43.9078L52.2533 43.2263L51.8455 45.4552L53.8128 45.8152ZM56.7859 47.0065L56.4556 48.7796L60.388 49.512L60.7182 47.739L56.7859 47.0065ZM59.0217 47.2378L54.0872 45.6864L52.8875 49.5023L57.822 51.0537L59.0217 47.2378ZM55.4546 47.9543L55.7802 46.1751L51.8455 45.4552L51.52 47.2344L55.4546 47.9543ZM53.2113 47.7226L58.1506 49.2802L59.3536 45.4653L54.4143 43.9078L53.2113 47.7226Z" fill="#AF89E4" mask="url(#path-25-inside-13_21_207)"/>
<mask id="path-27-inside-14_21_207" fill="white">
<path d="M67.2102 47.8285V49.6754L62.1294 49.7246V47.8778L67.2102 47.8285Z"/>
</mask>
<path d="M67.2102 47.8285V49.6754L62.1294 49.7246V47.8778L67.2102 47.8285Z" fill="#C099F7"/>
<path d="M67.2102 47.8285H69.2102V45.809L67.1908 45.8286L67.2102 47.8285ZM67.2102 49.6754L67.2296 51.6753L69.2102 51.6561V49.6754H67.2102ZM62.1294 49.7246H60.1294V51.7441L62.1488 51.7245L62.1294 49.7246ZM62.1294 47.8778L62.11 45.8778L60.1294 45.897V47.8778H62.1294ZM65.2102 47.8285V49.6754H69.2102V47.8285H65.2102ZM67.1908 47.6755L62.11 47.7247L62.1488 51.7245L67.2296 51.6753L67.1908 47.6755ZM64.1294 49.7246V47.8778H60.1294V49.7246H64.1294ZM62.1488 49.8777L67.2296 49.8284L67.1908 45.8286L62.11 45.8778L62.1488 49.8777Z" fill="#AF89E4" mask="url(#path-27-inside-14_21_207)"/>
<mask id="path-29-inside-15_21_207" fill="white">
<path d="M75.6314 46.6156L75.8343 48.4194L70.8101 49.3921L70.6025 47.5883L75.6314 46.6156Z"/>
</mask>
<path d="M75.6314 46.6156L75.8343 48.4194L70.8101 49.3921L70.6025 47.5883L75.6314 46.6156Z" fill="#C099F7"/>
<path d="M75.6314 46.6156L77.6189 46.3921L77.377 44.2409L75.2516 44.652L75.6314 46.6156ZM75.8343 48.4194L76.2144 50.383L78.0282 50.0318L77.8217 48.1959L75.8343 48.4194ZM70.8101 49.3921L68.8232 49.6207L69.0701 51.7661L71.1902 51.3556L70.8101 49.3921ZM70.6025 47.5883L70.2227 45.6247L68.4039 45.9765L68.6157 47.8169L70.6025 47.5883ZM73.6439 46.8391L73.8468 48.6429L77.8217 48.1959L77.6189 46.3921L73.6439 46.8391ZM75.4541 46.4559L70.43 47.4286L71.1902 51.3556L76.2144 50.383L75.4541 46.4559ZM72.797 49.1635L72.5894 47.3597L68.6157 47.8169L68.8232 49.6207L72.797 49.1635ZM70.9823 49.5519L76.0112 48.5792L75.2516 44.652L70.2227 45.6247L70.9823 49.5519Z" fill="#AF89E4" mask="url(#path-29-inside-15_21_207)"/>
<mask id="path-31-inside-16_21_207" fill="white">
<path d="M83.7835 43.9622L84.1704 45.7167L79.2877 47.5636L78.9009 45.809L83.7835 43.9622Z"/>
</mask>
<path d="M83.7835 43.9622L84.1704 45.7167L79.2877 47.5636L78.9009 45.809L83.7835 43.9622Z" fill="#C099F7"/>
<path d="M83.7835 43.9622L85.7366 43.5315L85.2387 41.2734L83.0759 42.0915L83.7835 43.9622ZM84.1704 45.7167L84.8779 47.5874L86.4959 46.9754L86.1235 45.2861L84.1704 45.7167ZM79.2877 47.5636L77.3346 47.9942L77.8325 50.2524L79.9953 49.4343L79.2877 47.5636ZM78.9009 45.809L78.1933 43.9384L76.5753 44.5504L76.9478 46.2397L78.9009 45.809ZM81.8304 44.3928L82.2173 46.1473L86.1235 45.2861L85.7366 43.5315L81.8304 44.3928ZM83.4628 43.8461L78.5801 45.693L79.9953 49.4343L84.8779 47.5874L83.4628 43.8461ZM81.2408 47.133L80.854 45.3784L76.9478 46.2397L77.3346 47.9942L81.2408 47.133ZM79.6085 47.6797L84.4911 45.8328L83.0759 42.0915L78.1933 43.9384L79.6085 47.6797Z" fill="#AF89E4" mask="url(#path-31-inside-16_21_207)"/>
<mask id="path-33-inside-17_21_207" fill="white">
<path d="M91.6703 39.9729L92.2223 41.6536L87.5472 44.2577L87 42.577L91.6703 39.9729Z"/>
</mask>
<path d="M91.6703 39.9729L92.2223 41.6536L87.5472 44.2577L87 42.577L91.6703 39.9729Z" fill="#C099F7"/>
<path d="M91.6703 39.9729L93.5705 39.3489L92.814 37.0453L90.6964 38.2261L91.6703 39.9729ZM92.2223 41.6536L93.1956 43.4008L94.6374 42.5976L94.1225 41.0295L92.2223 41.6536ZM87.5472 44.2577L85.6455 44.8769L86.3978 47.1873L88.5205 46.0049L87.5472 44.2577ZM87 42.577L86.026 40.8302L84.5888 41.6316L85.0983 43.1962L87 42.577ZM89.7702 40.5969L90.3221 42.2776L94.1225 41.0295L93.5705 39.3489L89.7702 40.5969ZM91.249 39.9063L86.574 42.5105L88.5205 46.0049L93.1956 43.4008L91.249 39.9063ZM89.449 43.6385L88.9017 41.9578L85.0983 43.1962L85.6455 44.8769L89.449 43.6385ZM87.974 44.3238L92.6443 41.7197L90.6964 38.2261L86.026 40.8302L87.974 44.3238Z" fill="#AF89E4" mask="url(#path-33-inside-17_21_207)"/>
<mask id="path-35-inside-18_21_207" fill="white">
<path d="M99.8224 35.6205L100.261 37.3566L95.4446 39.4374L95.0059 37.7075L99.8224 35.6205Z"/>
</mask>
<path d="M99.8224 35.6205L100.261 37.3566L95.4446 39.4374L95.0059 37.7075L99.8224 35.6205Z" fill="#C099F7"/>
<path d="M99.8224 35.6205L101.761 35.1305L101.185 32.8503L99.0273 33.7853L99.8224 35.6205ZM100.261 37.3566L101.054 39.1926L102.617 38.5173L102.2 36.8665L100.261 37.3566ZM95.4446 39.4374L93.506 39.9291L94.083 42.2043L96.2378 41.2734L95.4446 39.4374ZM95.0059 37.7075L94.2107 35.8723L92.6488 36.5491L93.0672 38.1991L95.0059 37.7075ZM97.8834 36.1105L98.3221 37.8466L102.2 36.8665L101.761 35.1305L97.8834 36.1105ZM99.468 35.5206L94.6514 37.6014L96.2378 41.2734L101.054 39.1926L99.468 35.5206ZM97.3832 38.9457L96.9445 37.2158L93.0672 38.1991L93.506 39.9291L97.3832 38.9457ZM95.801 39.5426L100.618 37.4556L99.0273 33.7853L94.2107 35.8723L95.801 39.5426Z" fill="#AF89E4" mask="url(#path-35-inside-18_21_207)"/>
<mask id="path-37-inside-19_21_207" fill="white">
<path d="M108.409 33.1332L108.664 34.9246L103.663 36.119L103.413 34.3275L108.409 33.1332Z"/>
</mask>
<path d="M108.409 33.1332L108.664 34.9246L103.663 36.119L103.413 34.3275L108.409 33.1332Z" fill="#C099F7"/>
<path d="M108.409 33.1332L110.389 32.8516L110.08 30.6774L107.944 31.188L108.409 33.1332ZM108.664 34.9246L109.128 36.8699L110.9 36.4467L110.644 34.6431L108.664 34.9246ZM103.663 36.119L101.682 36.3954L101.987 38.5756L104.128 38.0643L103.663 36.119ZM103.413 34.3275L102.948 32.3823L101.181 32.8047L101.432 34.604L103.413 34.3275ZM106.429 33.4147L106.684 35.2062L110.644 34.6431L110.389 32.8516L106.429 33.4147ZM108.199 32.9794L103.199 34.1737L104.128 38.0643L109.128 36.8699L108.199 32.9794ZM105.644 35.8425L105.394 34.0511L101.432 34.604L101.682 36.3954L105.644 35.8425ZM103.878 36.2727L108.874 35.0784L107.944 31.188L102.948 32.3823L103.878 36.2727Z" fill="#AF89E4" mask="url(#path-37-inside-19_21_207)"/>
<mask id="path-39-inside-20_21_207" fill="white">
<path d="M117.188 32.1975L117.244 34.0444L112.168 34.3153L112.112 32.4684L117.188 32.1975Z"/>
</mask>
<path d="M117.188 32.1975L117.244 34.0444L112.168 34.3153L112.112 32.4684L117.188 32.1975Z" fill="#C099F7"/>
<path d="M117.188 32.1975L119.187 32.1362L119.124 30.0913L117.081 30.2004L117.188 32.1975ZM117.244 34.0444L117.351 36.0416L119.303 35.9374L119.244 33.9831L117.244 34.0444ZM112.168 34.3153L110.169 34.3766L110.232 36.4215L112.275 36.3124L112.168 34.3153ZM112.112 32.4684L112.005 30.4712L110.053 30.5754L110.113 32.5297L112.112 32.4684ZM115.189 32.2588L115.245 34.1057L119.244 33.9831L119.187 32.1362L115.189 32.2588ZM117.138 32.0472L112.062 32.3181L112.275 36.3124L117.351 36.0416L117.138 32.0472ZM114.167 34.254L114.111 32.4071L110.113 32.5297L110.169 34.3766L114.167 34.254ZM112.218 34.4655L117.294 34.1947L117.081 30.2004L112.005 30.4712L112.218 34.4655Z" fill="#AF89E4" mask="url(#path-39-inside-20_21_207)"/>
<mask id="path-41-inside-21_21_207" fill="white">
<path d="M126.019 33.0101L125.858 34.82L120.811 34.0505L120.976 32.2036L126.019 33.0101Z"/>
</mask>
<path d="M126.019 33.0101L125.858 34.82L120.811 34.0505L120.976 32.2036L126.019 33.0101Z" fill="#C099F7"/>
<path d="M126.019 33.0101L128.011 33.1866L128.175 31.3296L126.335 31.0352L126.019 33.0101ZM125.858 34.82L125.557 36.7972L127.662 37.1182L127.85 34.9966L125.858 34.82ZM120.811 34.0505L118.818 33.8724L118.651 35.7444L120.509 36.0277L120.811 34.0505ZM120.976 32.2036L121.291 30.2287L119.175 29.8902L118.984 32.0255L120.976 32.2036ZM124.027 32.8335L123.866 34.6435L127.85 34.9966L128.011 33.1866L124.027 32.8335ZM126.16 32.8429L121.112 32.0733L120.509 36.0277L125.557 36.7972L126.16 32.8429ZM122.803 34.2286L122.968 32.3817L118.984 32.0255L118.818 33.8724L122.803 34.2286ZM120.66 34.1785L125.703 34.985L126.335 31.0352L121.291 30.2287L120.66 34.1785Z" fill="#AF89E4" mask="url(#path-41-inside-21_21_207)"/>
<mask id="path-43-inside-22_21_207" fill="white">
<path d="M134.671 35.7989L134.265 37.5411L129.411 35.6265L129.816 33.8781L134.671 35.7989Z"/>
</mask>
<path d="M134.671 35.7989L134.265 37.5411L129.411 35.6265L129.816 33.8781L134.671 35.7989Z" fill="#C099F7"/>
<path d="M134.671 35.7989L136.619 36.2524L137.01 34.5734L135.407 33.9391L134.671 35.7989ZM134.265 37.5411L133.531 39.4016L135.687 40.2519L136.213 37.9947L134.265 37.5411ZM129.411 35.6265L127.462 35.1744L127.073 36.8543L128.677 37.487L129.411 35.6265ZM129.816 33.8781L130.552 32.0183L128.393 31.164L127.868 33.426L129.816 33.8781ZM132.723 35.3453L132.317 37.0875L136.213 37.9947L136.619 36.2524L132.723 35.3453ZM134.999 35.6805L130.144 33.7659L128.677 37.487L133.531 39.4016L134.999 35.6805ZM131.359 36.0785L131.765 34.3301L127.868 33.426L127.462 35.1744L131.359 36.0785ZM129.08 35.7378L133.935 37.6586L135.407 33.9391L130.552 32.0183L129.08 35.7378Z" fill="#AF89E4" mask="url(#path-43-inside-22_21_207)"/>
<mask id="path-45-inside-23_21_207" fill="white">
<path d="M142.818 40.6316L142.171 42.2445L137.666 39.1664L138.312 37.5472L142.818 40.6316Z"/>
</mask>
<path d="M142.818 40.6316L142.171 42.2445L137.666 39.1664L138.312 37.5472L142.818 40.6316Z" fill="#C099F7"/>
<path d="M142.818 40.6316L144.674 41.3755L145.27 39.887L143.947 38.9812L142.818 40.6316ZM142.171 42.2445L141.043 43.8959L143.101 45.3018L144.028 42.9884L142.171 42.2445ZM137.666 39.1664L135.809 38.4249L135.214 39.9135L136.538 40.8177L137.666 39.1664ZM138.312 37.5472L139.442 35.8969L137.381 34.4858L136.455 36.8058L138.312 37.5472ZM140.961 39.8877L140.315 41.5006L144.028 42.9884L144.674 41.3755L140.961 39.8877ZM143.3 40.5931L138.794 37.515L136.538 40.8177L141.043 43.8959L143.3 40.5931ZM139.524 39.9078L140.17 38.2887L136.455 36.8058L135.809 38.4249L139.524 39.9078ZM137.183 39.1976L141.688 42.2819L143.947 38.9812L139.442 35.8969L137.183 39.1976Z" fill="#AF89E4" mask="url(#path-45-inside-23_21_207)"/>
<mask id="path-47-inside-24_21_207" fill="white">
<path d="M150.121 47.3604L149.258 48.7948L145.267 44.707L146.13 43.2726L150.121 47.3604Z"/>
</mask>
<path d="M150.121 47.3604L149.258 48.7948L145.267 44.707L146.13 43.2726L150.121 47.3604Z" fill="#C099F7"/>
<path d="M150.121 47.3604L151.835 48.3917L152.631 47.0684L151.552 45.9632L150.121 47.3604ZM149.258 48.7948L147.827 50.192L149.636 52.045L150.972 49.8261L149.258 48.7948ZM145.267 44.707L143.554 43.6757L142.757 44.999L143.836 46.1042L145.267 44.707ZM146.13 43.2726L147.561 41.8754L145.752 40.0224L144.417 42.2413L146.13 43.2726ZM148.408 46.3291L147.545 47.7635L150.972 49.8261L151.835 48.3917L148.408 46.3291ZM150.689 47.3976L146.698 43.3098L143.836 46.1042L147.827 50.192L150.689 47.3976ZM146.981 45.7383L147.844 44.3039L144.417 42.2413L143.554 43.6757L146.981 45.7383ZM144.699 44.6698L148.69 48.7576L151.552 45.9632L147.561 41.8754L144.699 44.6698Z" fill="#AF89E4" mask="url(#path-47-inside-24_21_207)"/>
<mask id="path-49-inside-25_21_207" fill="white">
<path d="M156.39 55.5176L155.366 56.7489L151.908 51.8915L152.932 50.6603L156.39 55.5176Z"/>
</mask>
<path d="M156.39 55.5176L155.366 56.7489L151.908 51.8915L152.932 50.6603L156.39 55.5176Z" fill="#C099F7"/>
<path d="M156.39 55.5176L157.928 56.7963L158.912 55.6122L158.019 54.3577L156.39 55.5176ZM155.366 56.7489L153.737 57.9088L155.243 60.0249L156.904 58.0275L155.366 56.7489ZM151.908 51.8915L150.37 50.6129L149.386 51.797L150.279 53.0514L151.908 51.8915ZM152.932 50.6603L154.561 49.5004L153.055 47.3842L151.394 49.3816L152.932 50.6603ZM154.852 54.239L153.828 55.4702L156.904 58.0275L157.928 56.7963L154.852 54.239ZM156.995 55.589L153.538 50.7316L150.279 53.0514L153.737 57.9088L156.995 55.589ZM153.446 53.1702L154.47 51.9389L151.394 49.3816L150.37 50.6129L153.446 53.1702ZM151.303 51.8202L154.761 56.6775L158.019 54.3577L154.561 49.5004L151.303 51.8202Z" fill="#AF89E4" mask="url(#path-49-inside-25_21_207)"/>
<mask id="path-51-inside-26_21_207" fill="white">
<path d="M161.442 65.2937L160.235 66.2171L157.664 60.4979L158.871 59.5745L161.442 65.2937Z"/>
</mask>
<path d="M161.442 65.2937L160.235 66.2171L157.664 60.4979L158.871 59.5745L161.442 65.2937Z" fill="#C099F7"/>
<path d="M161.442 65.2937L162.657 66.8824L163.916 65.9195L163.266 64.4736L161.442 65.2937ZM160.235 66.2171L158.41 67.0371L159.445 69.3385L161.449 67.8059L160.235 66.2171ZM157.664 60.4979L156.449 58.9091L155.189 59.8721L155.839 61.3179L157.664 60.4979ZM158.871 59.5745L160.695 58.7544L159.661 56.453L157.656 57.9857L158.871 59.5745ZM160.227 63.7049L159.02 64.6283L161.449 67.8059L162.657 66.8824L160.227 63.7049ZM162.059 65.3971L159.488 59.6779L155.839 61.3179L158.41 67.0371L162.059 65.3971ZM158.878 62.0867L160.086 61.1632L157.656 57.9857L156.449 58.9091L158.878 62.0867ZM157.047 60.3945L159.618 66.1137L163.266 64.4736L160.695 58.7544L157.047 60.3945Z" fill="#AF89E4" mask="url(#path-51-inside-26_21_207)"/>
<mask id="path-53-inside-27_21_207" fill="white">
<path d="M164.395 76.7691L163.032 77.1692L161.914 70.7051L163.277 70.2988L164.395 76.7691Z"/>
</mask>
<path d="M164.395 76.7691L163.032 77.1692L161.914 70.7051L163.277 70.2988L164.395 76.7691Z" fill="#C099F7"/>
<path d="M164.395 76.7691L164.959 78.6882L166.67 78.1859L166.366 76.4286L164.395 76.7691ZM163.032 77.1692L161.061 77.5101L161.444 79.7198L163.595 79.0883L163.032 77.1692ZM161.914 70.7051L161.343 68.7884L159.641 69.2957L159.943 71.046L161.914 70.7051ZM163.277 70.2988L165.248 69.9583L164.865 67.7389L162.706 68.3821L163.277 70.2988ZM163.832 74.8501L162.469 75.2502L163.595 79.0883L164.959 78.6882L163.832 74.8501ZM165.003 76.8284L163.885 70.3643L159.943 71.046L161.061 77.5101L165.003 76.8284ZM162.485 72.6218L163.849 72.2155L162.706 68.3821L161.343 68.7884L162.485 72.6218ZM161.307 70.6394L162.425 77.1097L166.366 76.4286L165.248 69.9583L161.307 70.6394Z" fill="#AF89E4" mask="url(#path-53-inside-27_21_207)"/>
<mask id="path-55-inside-28_21_207" fill="white">
<path d="M163.376 89.4142L162.027 88.9463L163.329 82.5376L164.683 83.0116L163.376 89.4142Z"/>
</mask>
<path d="M163.376 89.4142L162.027 88.9463L163.329 82.5376L164.683 83.0116L163.376 89.4142Z" fill="#C099F7"/>
<path d="M163.376 89.4142L162.721 91.3038L164.879 92.0522L165.336 89.8141L163.376 89.4142ZM162.027 88.9463L160.067 88.5481L159.719 90.2627L161.372 90.8359L162.027 88.9463ZM163.329 82.5376L163.99 80.6499L161.825 79.8922L161.369 82.1394L163.329 82.5376ZM164.683 83.0116L166.642 83.4116L166.992 81.7009L165.344 81.1239L164.683 83.0116ZM164.031 87.5246L162.682 87.0567L161.372 90.8359L162.721 91.3038L164.031 87.5246ZM163.987 89.3445L165.289 82.9358L161.369 82.1394L160.067 88.5481L163.987 89.3445ZM162.668 84.4253L164.022 84.8993L165.344 81.1239L163.99 80.6499L162.668 84.4253ZM162.723 82.6117L161.416 89.0142L165.336 89.8141L166.642 83.4116L162.723 82.6117Z" fill="#AF89E4" mask="url(#path-55-inside-28_21_207)"/>
<mask id="path-57-inside-29_21_207" fill="white">
<path d="M157.795 99.8675L156.771 98.6362L160.229 93.7789L161.253 95.0102L157.795 99.8675Z"/>
</mask>
<path d="M157.795 99.8675L156.771 98.6362L160.229 93.7789L161.253 95.0102L157.795 99.8675Z" fill="#C099F7"/>
<path d="M157.795 99.8675L156.257 101.146L157.918 103.144L159.424 101.027L157.795 99.8675ZM156.771 98.6362L155.142 97.4763L154.249 98.7308L155.234 99.9149L156.771 98.6362ZM160.229 93.7789L161.767 92.5003L160.107 90.5029L158.6 92.619L160.229 93.7789ZM161.253 95.0102L162.882 96.1701L163.775 94.9156L162.791 93.7315L161.253 95.0102ZM159.333 98.5888L158.309 97.3576L155.234 99.9149L156.257 101.146L159.333 98.5888ZM158.401 99.7961L161.859 94.9388L158.6 92.619L155.142 97.4763L158.401 99.7961ZM158.692 95.0576L159.715 96.2888L162.791 93.7315L161.767 92.5003L158.692 95.0576ZM159.624 93.8503L156.166 98.7076L159.424 101.027L162.882 96.1701L159.624 93.8503Z" fill="#AF89E4" mask="url(#path-57-inside-29_21_207)"/>
<mask id="path-59-inside-30_21_207" fill="white">
<path d="M149.814 106.523L149.225 104.873L153.805 102.01L154.409 103.66L149.814 106.523Z"/>
</mask>
<path d="M149.814 106.523L149.225 104.873L153.805 102.01L154.409 103.66L149.814 106.523Z" fill="#C099F7"/>
<path d="M149.814 106.523L147.931 107.196L148.766 109.532L150.872 108.22L149.814 106.523ZM149.225 104.873L148.165 103.177L146.799 104.03L147.341 105.546L149.225 104.873ZM153.805 102.01L155.683 101.323L154.836 99.0074L152.745 100.314L153.805 102.01ZM154.409 103.66L155.467 105.357L156.846 104.498L156.287 102.973L154.409 103.66ZM151.698 105.849L151.108 104.2L147.341 105.546L147.931 107.196L151.698 105.849ZM150.285 106.569L154.865 103.706L152.745 100.314L148.165 103.177L150.285 106.569ZM151.927 102.697L152.531 104.347L156.287 102.973L155.683 101.323L151.927 102.697ZM153.352 101.962L148.757 104.825L150.872 108.22L155.467 105.357L153.352 101.962Z" fill="#AF89E4" mask="url(#path-59-inside-30_21_207)"/>
<mask id="path-61-inside-31_21_207" fill="white">
<path d="M139.893 107.286L140.044 105.476L145.096 106.19L144.945 108L139.893 107.286Z"/>
</mask>
<path d="M139.893 107.286L140.044 105.476L145.096 106.19L144.945 108L139.893 107.286Z" fill="#C099F7"/>
<path d="M139.893 107.286L137.899 107.12L137.743 109.002L139.613 109.266L139.893 107.286ZM140.044 105.476L140.323 103.496L138.226 103.199L138.05 105.31L140.044 105.476ZM145.096 106.19L147.089 106.356L147.246 104.474L145.376 104.21L145.096 106.19ZM144.945 108L144.665 109.98L146.762 110.277L146.938 108.166L144.945 108ZM141.886 107.452L142.037 105.642L138.05 105.31L137.899 107.12L141.886 107.452ZM139.764 107.456L144.816 108.17L145.376 104.21L140.323 103.496L139.764 107.456ZM143.103 106.024L142.952 107.834L146.938 108.166L147.089 106.356L143.103 106.024ZM145.225 106.02L140.172 105.306L139.613 109.266L144.665 109.98L145.225 106.02Z" fill="#AF89E4" mask="url(#path-61-inside-31_21_207)"/>
<mask id="path-63-inside-32_21_207" fill="white">
<path d="M131.132 101.696L131.906 100.182L136.152 103.875L135.378 105.396L131.132 101.696Z"/>
</mask>
<path d="M131.132 101.696L131.906 100.182L136.152 103.875L135.378 105.396L131.132 101.696Z" fill="#C099F7"/>
<path d="M131.132 101.696L129.351 100.786L128.641 102.178L129.818 103.204L131.132 101.696ZM131.906 100.182L133.219 98.6727L131.289 96.9937L130.125 99.2718L131.906 100.182ZM136.152 103.875L137.934 104.782L138.642 103.391L137.464 102.367L136.152 103.875ZM135.378 105.396L134.064 106.904L135.998 108.589L137.161 106.303L135.378 105.396ZM132.913 102.606L133.687 101.092L130.125 99.2718L129.351 100.786L132.913 102.606ZM130.593 101.691L134.839 105.384L137.464 102.367L133.219 98.6727L130.593 101.691ZM134.369 102.968L133.596 104.489L137.161 106.303L137.934 104.782L134.369 102.968ZM136.692 103.888L132.446 100.188L129.818 103.204L134.064 106.904L136.692 103.888Z" fill="#AF89E4" mask="url(#path-63-inside-32_21_207)"/>
<mask id="path-65-inside-33_21_207" fill="white">
<path d="M125.67 90.5592L126.991 89.9436L128.624 96.223L127.298 96.8079L125.67 90.5592Z"/>
</mask>
<path d="M125.67 90.5592L126.991 89.9436L128.624 96.223L127.298 96.8079L125.67 90.5592Z" fill="#C099F7"/>
<path d="M125.67 90.5592L124.826 88.7465L123.315 89.4505L123.735 91.0633L125.67 90.5592ZM126.991 89.9436L128.927 89.4404L128.323 87.1164L126.146 88.1308L126.991 89.9436ZM128.624 96.223L129.431 98.0529L130.987 97.3662L130.559 95.7199L128.624 96.223ZM127.298 96.8079L125.363 97.312L125.955 99.5864L128.105 98.6377L127.298 96.8079ZM126.515 92.372L127.836 91.7564L126.146 88.1308L124.826 88.7465L126.515 92.372ZM125.056 90.4468L126.688 96.7262L130.559 95.7199L128.927 89.4404L125.056 90.4468ZM127.816 94.3932L126.491 94.9781L128.105 98.6377L129.431 98.0529L127.816 94.3932ZM129.233 96.3038L127.606 90.0551L123.735 91.0633L125.363 97.312L129.233 96.3038Z" fill="#AF89E4" mask="url(#path-65-inside-33_21_207)"/>
<mask id="path-67-inside-34_21_207" fill="white">
<path d="M128.033 77.2185L129.293 78.0127L127.09 83.9843L125.826 83.1963L128.033 77.2185Z"/>
</mask>
<path d="M128.033 77.2185L129.293 78.0127L127.09 83.9843L125.826 83.1963L128.033 77.2185Z" fill="#C099F7"/>
<path d="M128.033 77.2185L129.1 75.5267L127.012 74.2104L126.157 76.5256L128.033 77.2185ZM129.293 78.0127L131.169 78.7049L131.73 77.1849L130.36 76.3208L129.293 78.0127ZM127.09 83.9843L126.032 85.6816L128.116 86.9806L128.966 84.6765L127.09 83.9843ZM125.826 83.1963L123.95 82.5034L123.385 84.0318L124.768 84.8936L125.826 83.1963ZM126.967 78.9103L128.226 79.7045L130.36 76.3208L129.1 75.5267L126.967 78.9103ZM127.417 77.3204L125.214 83.292L128.966 84.6765L131.169 78.7049L127.417 77.3204ZM128.148 82.287L126.884 81.499L124.768 84.8936L126.032 85.6816L128.148 82.287ZM127.702 83.8892L129.91 77.9114L126.157 76.5256L123.95 82.5034L127.702 83.8892Z" fill="#AF89E4" mask="url(#path-67-inside-34_21_207)"/>
<mask id="path-69-inside-35_21_207" fill="white">
<path d="M135.789 68.8337L136.468 70.4282L132.019 73.6418L131.345 72.0412L135.789 68.8337Z"/>
</mask>
<path d="M135.789 68.8337L136.468 70.4282L132.019 73.6418L131.345 72.0412L135.789 68.8337Z" fill="#C099F7"/>
<path d="M135.789 68.8337L137.629 68.0498L136.648 65.7472L134.618 67.212L135.789 68.8337ZM136.468 70.4282L137.639 72.0495L138.934 71.114L138.308 69.6443L136.468 70.4282ZM132.019 73.6418L130.176 74.4186L131.153 76.7351L133.19 75.2631L132.019 73.6418ZM131.345 72.0412L130.174 70.4195L128.884 71.3511L129.502 72.8179L131.345 72.0412ZM133.949 69.6176L134.628 71.2121L138.308 69.6443L137.629 68.0498L133.949 69.6176ZM135.297 68.807L130.848 72.0206L133.19 75.2631L137.639 72.0495L135.297 68.807ZM133.862 72.8651L133.188 71.2644L129.502 72.8179L130.176 74.4186L133.862 72.8651ZM132.515 73.6629L136.959 70.4555L134.618 67.212L130.174 70.4195L132.515 73.6629Z" fill="#AF89E4" mask="url(#path-69-inside-35_21_207)"/>
<mask id="path-71-inside-36_21_207" fill="white">
<path d="M145.011 66.2542L145.214 68.0579L140.19 69.0368L139.982 67.233L145.011 66.2542Z"/>
</mask>
<path d="M145.011 66.2542L145.214 68.0579L140.19 69.0368L139.982 67.233L145.011 66.2542Z" fill="#C099F7"/>
<path d="M145.011 66.2542L146.998 66.0306L146.756 63.8769L144.629 64.291L145.011 66.2542ZM145.214 68.0579L145.596 70.021L147.407 69.6681L147.201 67.8344L145.214 68.0579ZM140.19 69.0368L138.203 69.2655L138.45 71.4134L140.572 70.9999L140.19 69.0368ZM139.982 67.233L139.6 65.2699L137.784 65.6234L137.995 67.4617L139.982 67.233ZM143.023 66.4777L143.226 68.2814L147.201 67.8344L146.998 66.0306L143.023 66.4777ZM144.831 66.0949L139.807 67.0737L140.572 70.9999L145.596 70.021L144.831 66.0949ZM142.176 68.8082L141.969 67.0044L137.995 67.4617L138.203 69.2655L142.176 68.8082ZM140.364 69.1962L145.393 68.2173L144.629 64.291L139.6 65.2699L140.364 69.1962Z" fill="#AF89E4" mask="url(#path-71-inside-36_21_207)"/>
<mask id="path-73-inside-37_21_207" fill="white">
<path d="M153.785 65.6385L153.809 67.4854L148.733 67.5963V65.7494L153.785 65.6385Z"/>
</mask>
<path d="M153.785 65.6385L153.809 67.4854L148.733 67.5963V65.7494L153.785 65.6385Z" fill="#C099F7"/>
<path d="M153.785 65.6385L155.785 65.613L155.759 63.5948L153.742 63.639L153.785 65.6385ZM153.809 67.4854L153.853 69.485L155.834 69.4417L155.809 67.4599L153.809 67.4854ZM148.733 67.5963H146.733V69.6404L148.777 69.5958L148.733 67.5963ZM148.733 65.7494L148.689 63.7498L146.733 63.7927V65.7494H148.733ZM151.786 65.6641L151.809 67.511L155.809 67.4599L155.785 65.613L151.786 65.6641ZM153.765 65.4859L148.689 65.5967L148.777 69.5958L153.853 69.485L153.765 65.4859ZM150.733 67.5963V65.7494H146.733V67.5963H150.733ZM148.777 67.7489L153.829 67.6381L153.742 63.639L148.689 63.7498L148.777 67.7489Z" fill="#AF89E4" mask="url(#path-73-inside-37_21_207)"/>
<mask id="path-75-inside-38_21_207" fill="white">
<path d="M162.546 66.5927L162.376 68.4396L157.333 67.6393L157.503 65.8293L162.546 66.5927Z"/>
</mask>
<path d="M162.546 66.5927L162.376 68.4396L157.333 67.6393L157.503 65.8293L162.546 66.5927Z" fill="#C099F7"/>
<path d="M162.546 66.5927L164.537 66.7759L164.71 64.8976L162.845 64.6152L162.546 66.5927ZM162.376 68.4396L162.063 70.4149L164.172 70.7497L164.368 68.6227L162.376 68.4396ZM157.333 67.6393L155.342 67.4525L155.166 69.3205L157.02 69.6146L157.333 67.6393ZM157.503 65.8293L157.802 63.8519L155.709 63.5351L155.512 65.6425L157.503 65.8293ZM160.554 66.4096L160.384 68.2565L164.368 68.6227L164.537 66.7759L160.554 66.4096ZM162.69 66.4643L157.646 65.664L157.02 69.6146L162.063 70.4149L162.69 66.4643ZM159.324 67.8261L159.494 66.0162L155.512 65.6425L155.342 67.4525L159.324 67.8261ZM157.203 67.8068L162.247 68.5702L162.845 64.6152L157.802 63.8519L157.203 67.8068Z" fill="#AF89E4" mask="url(#path-75-inside-38_21_207)"/>
<mask id="path-77-inside-39_21_207" fill="white">
<path d="M171.028 68.649L170.792 70.4466L165.782 69.3324L166.018 67.5286L171.028 68.649Z"/>
</mask>
<path d="M171.028 68.649L170.792 70.4466L165.782 69.3324L166.018 67.5286L171.028 68.649Z" fill="#C099F7"/>
<path d="M171.028 68.649L173.011 68.9092L173.249 67.0963L171.465 66.6972L171.028 68.649ZM170.792 70.4466L170.358 72.3989L172.491 72.8733L172.775 70.7068L170.792 70.4466ZM165.782 69.3324L163.799 69.073L163.562 70.8874L165.348 71.2847L165.782 69.3324ZM166.018 67.5286L166.455 65.5768L164.319 65.0991L164.035 67.2692L166.018 67.5286ZM169.045 68.3888L168.809 70.1864L172.775 70.7068L173.011 68.9092L169.045 68.3888ZM171.226 68.4944L166.216 67.3801L165.348 71.2847L170.358 72.3989L171.226 68.4944ZM167.765 69.5917L168.001 67.7879L164.035 67.2692L163.799 69.073L167.765 69.5917ZM165.582 69.4803L170.592 70.6008L171.465 66.6972L166.455 65.5768L165.582 69.4803Z" fill="#AF89E4" mask="url(#path-77-inside-39_21_207)"/>
<mask id="path-79-inside-40_21_207" fill="white">
<path d="M179.417 69.6339L179.332 71.4808L174.26 71.0991L174.345 69.2522L179.417 69.6339Z"/>
</mask>
<path d="M179.417 69.6339L179.332 71.4808L174.26 71.0991L174.345 69.2522L179.417 69.6339Z" fill="#C099F7"/>
<path d="M179.417 69.6339L181.414 69.7257L181.504 67.7853L179.567 67.6395L179.417 69.6339ZM179.332 71.4808L179.181 73.4751L181.235 73.6297L181.329 71.5726L179.332 71.4808ZM174.26 71.0991L172.262 71.0072L172.173 72.9477L174.11 73.0934L174.26 71.0991ZM174.345 69.2522L174.495 67.2578L172.442 67.1033L172.347 69.1603L174.345 69.2522ZM177.419 69.542L177.334 71.3889L181.329 71.5726L181.414 69.7257L177.419 69.542ZM179.482 69.4864L174.41 69.1047L174.11 73.0934L179.181 73.4751L179.482 69.4864ZM176.258 71.1909L176.343 69.3441L172.347 69.1603L172.262 71.0072L176.258 71.1909ZM174.195 71.2466L179.266 71.6282L179.567 67.6395L174.495 67.2578L174.195 71.2466Z" fill="#AF89E4" mask="url(#path-79-inside-40_21_207)"/>
<mask id="path-81-inside-41_21_207" fill="white">
<path d="M187.847 69.2892L187.936 71.1361L182.865 71.5547L182.775 69.7078L187.847 69.2892Z"/>
</mask>
<path d="M187.847 69.2892L187.936 71.1361L182.865 71.5547L182.775 69.7078L187.847 69.2892Z" fill="#C099F7"/>
<path d="M187.847 69.2892L189.844 69.1922L189.744 67.1258L187.682 67.296L187.847 69.2892ZM187.936 71.1361L188.101 73.1293L190.028 72.9702L189.934 71.0391L187.936 71.1361ZM182.865 71.5547L180.867 71.6517L180.968 73.7181L183.03 73.5479L182.865 71.5547ZM182.775 69.7078L182.611 67.7146L180.684 67.8736L180.778 69.8048L182.775 69.7078ZM185.849 69.3861L185.939 71.233L189.934 71.0391L189.844 69.1922L185.849 69.3861ZM187.772 69.1429L182.7 69.5615L183.03 73.5479L188.101 73.1293L187.772 69.1429ZM184.863 71.4577L184.773 69.6109L180.778 69.8048L180.867 71.6517L184.863 71.4577ZM182.94 71.701L188.011 71.2824L187.682 67.296L182.611 67.7146L182.94 71.701Z" fill="#AF89E4" mask="url(#path-81-inside-41_21_207)"/>
<mask id="path-83-inside-42_21_207" fill="white">
<path d="M196.201 67.9224L196.413 69.7262L191.389 70.7173L191.182 68.9135L196.201 67.9224Z"/>
</mask>
<path d="M196.201 67.9224L196.413 69.7262L191.389 70.7173L191.182 68.9135L196.201 67.9224Z" fill="#C099F7"/>
<path d="M196.201 67.9224L198.187 67.6886L197.935 65.5414L195.814 65.9603L196.201 67.9224ZM196.413 69.7262L196.8 71.6883L198.616 71.3302L198.4 69.4924L196.413 69.7262ZM191.389 70.7173L189.402 70.946L189.65 73.099L191.776 72.6795L191.389 70.7173ZM191.182 68.9135L190.794 66.9514L188.984 67.3089L189.195 69.1422L191.182 68.9135ZM194.215 68.1561L194.427 69.9599L198.4 69.4924L198.187 67.6886L194.215 68.1561ZM196.026 67.764L191.002 68.7551L191.776 72.6795L196.8 71.6883L196.026 67.764ZM193.376 70.4887L193.169 68.6849L189.195 69.1422L189.402 70.946L193.376 70.4887ZM191.569 70.8756L196.589 69.8845L195.814 65.9603L190.794 66.9514L191.569 70.8756Z" fill="#AF89E4" mask="url(#path-83-inside-42_21_207)"/>
<mask id="path-85-inside-43_21_207" fill="white">
<path d="M204.42 65.4231L204.778 67.1838L199.872 68.9014L199.509 67.1407L204.42 65.4231Z"/>
</mask>
<path d="M204.42 65.4231L204.778 67.1838L199.872 68.9014L199.509 67.1407L204.42 65.4231Z" fill="#C099F7"/>
<path d="M204.42 65.4231L206.379 65.024L205.922 62.7788L203.759 63.5352L204.42 65.4231ZM204.778 67.1838L205.439 69.0715L207.086 68.4948L206.738 66.7847L204.778 67.1838ZM199.872 68.9014L197.913 69.3055L198.375 71.5444L200.533 70.7891L199.872 68.9014ZM199.509 67.1407L198.849 65.2528L197.196 65.8306L197.55 67.5448L199.509 67.1407ZM202.46 65.8222L202.818 67.5829L206.738 66.7847L206.379 65.024L202.46 65.8222ZM204.117 65.2961L199.211 67.0137L200.533 70.7891L205.439 69.0715L204.117 65.2961ZM201.831 68.4973L201.468 66.7366L197.55 67.5448L197.913 69.3055L201.831 68.4973ZM200.169 69.0286L205.08 67.311L203.759 63.5352L198.849 65.2528L200.169 69.0286Z" fill="#AF89E4" mask="url(#path-85-inside-43_21_207)"/>
<mask id="path-87-inside-44_21_207" fill="white">
<path d="M212.284 61.4276L212.855 63.0898L208.194 65.7924L207.623 64.1241L212.284 61.4276Z"/>
</mask>
<path d="M212.284 61.4276L212.855 63.0898L208.194 65.7924L207.623 64.1241L212.284 61.4276Z" fill="#C099F7"/>
<path d="M212.284 61.4276L214.176 60.778L213.386 58.4794L211.282 59.6964L212.284 61.4276ZM212.855 63.0898L213.858 64.82L215.28 63.9953L214.746 62.4402L212.855 63.0898ZM208.194 65.7924L206.302 66.4399L207.09 68.7444L209.197 67.5226L208.194 65.7924ZM207.623 64.1241L206.622 62.3929L205.199 63.2161L205.731 64.7715L207.623 64.1241ZM210.392 62.0772L210.963 63.7394L214.746 62.4402L214.176 60.778L210.392 62.0772ZM211.852 61.3596L207.191 64.0623L209.197 67.5226L213.858 64.82L211.852 61.3596ZM210.086 65.145L209.515 63.4766L205.731 64.7715L206.302 66.4399L210.086 65.145ZM208.625 65.8552L213.285 63.1588L211.282 59.6964L206.622 62.3929L208.625 65.8552Z" fill="#AF89E4" mask="url(#path-87-inside-44_21_207)"/>
<mask id="path-89-inside-45_21_207" fill="white">
<path d="M219.342 55.3638L220.196 56.8105L216.162 60.8429L215.313 59.3961L219.342 55.3638Z"/>
</mask>
<path d="M219.342 55.3638L220.196 56.8105L216.162 60.8429L215.313 59.3961L219.342 55.3638Z" fill="#C099F7"/>
<path d="M219.342 55.3638L221.064 54.3472L219.752 52.1237L217.927 53.9502L219.342 55.3638ZM220.196 56.8105L221.61 58.2249L222.706 57.1289L221.918 55.7939L220.196 56.8105ZM216.162 60.8429L214.437 61.8553L215.747 64.0863L217.576 62.2573L216.162 60.8429ZM215.313 59.3961L213.898 57.9826L212.806 59.0758L213.588 60.4085L215.313 59.3961ZM217.619 56.3803L218.473 57.8271L221.918 55.7939L221.064 54.3472L217.619 56.3803ZM218.782 55.3961L214.748 59.4285L217.576 62.2573L221.61 58.2249L218.782 55.3961ZM217.887 59.8305L217.038 58.3838L213.588 60.4085L214.437 61.8553L217.887 59.8305ZM216.728 60.8097L220.757 56.7773L217.927 53.9502L213.898 57.9826L216.728 60.8097Z" fill="#AF89E4" mask="url(#path-89-inside-45_21_207)"/>
<path d="M244.179 36.0226L224.46 53.8223L216.877 46.7619L244.179 36.0226Z" fill="#C099F7" stroke="#AF89E4" stroke-width="2"/>
<path d="M225.889 57.266L246.12 39.7794L229.204 68.8234L225.889 57.266Z" fill="#C099F7" stroke="#AF89E4" stroke-width="2"/>
</g>
<defs>
<filter id="filter0_d_21_207" x="0" y="0" width="254" height="116" filterUnits="userSpaceOnUse" color-interpolation-filters="sRGB">
<feFlood flood-opacity="0" result="BackgroundImageFix"/>
<feColorMatrix in="SourceAlpha" type="matrix" values="0 0 0 0 0 0 0 0 0 0 0 0 0 0 0 0 0 0 127 0" result="hardAlpha"/>
<feOffset dy="4"/>
<feGaussianBlur stdDeviation="2"/>
<feComposite in2="hardAlpha" operator="out"/>
<feColorMatrix type="matrix" values="0 0 0 0 0 0 0 0 0 0 0 0 0 0 0 0 0 0 0.25 0"/>
<feBlend mode="normal" in2="BackgroundImageFix" result="effect1_dropShadow_21_207"/>
<feBlend mode="normal" in="SourceGraphic" in2="effect1_dropShadow_21_207" result="shape"/>
</filter>
</defs>
</svg>
